<svg width="32" height="32" viewBox="0 0 32 32" fill="none" xmlns="http://www.w3.org/2000/svg">
  <rect width="32" height="32" rx="8" fill="#4D7CFE"/>
  <path fill-rule="evenodd" clip-rule="evenodd" d="M9.47737 6.66742C9.84269 6.28597 10.2874 6.09525 10.8116 6.09525C11.3357 6.09525 11.7844 6.28199 12.1577 6.6555C12.5309 7.029 12.7176 7.478 12.7176 8.00249C12.7176 8.52699 12.5309 8.97201 12.1577 9.33756C11.7844 9.70312 11.3357 9.8859 10.8116 9.8859C10.2874 9.8859 9.84269 9.70312 9.47737 9.33756C9.11205 8.97201 8.9294 8.52699 8.9294 8.00249C8.9294 7.478 9.11205 7.03298 9.47737 6.66742ZM8.50054 13.6527C8.65938 13.3666 8.96116 13.1481 9.4059 12.9971C9.85063 12.8461 10.2914 12.7706 10.7282 12.7706C11.165 12.7706 11.5501 12.8262 11.8837 12.9375C11.2642 17.7215 10.9545 20.1373 10.9545 20.185C10.8751 20.5029 10.8354 20.7691 10.8354 20.9837C10.8354 21.1982 10.8513 21.385 10.883 21.5439C10.9466 21.9572 11.2365 22.1638 11.7527 22.1638C12.2689 22.1638 12.7454 21.826 13.1822 21.1506C13.619 20.4751 13.9485 19.7082 14.1709 18.8499C14.1914 18.8617 14.2142 18.8778 14.239 18.8982C14.3169 17.085 14.9255 15.6306 16.065 14.5348C17.3039 13.3428 18.8763 12.7468 20.7824 12.7468C22.2436 12.7468 23.4627 13.2156 24.4395 14.1534C25.4163 15.0911 25.9047 16.2354 25.9047 17.5864C25.9047 19.6367 25.3051 21.2777 24.1059 22.5095C22.9067 23.7412 21.4574 24.3571 19.7579 24.3571C18.0583 24.3571 16.7122 23.8724 15.7195 22.9028C15.2716 22.4654 14.9248 21.9811 14.679 21.4498C14.3753 22.135 13.9836 22.7227 13.5038 23.2128C12.7414 23.9916 11.8281 24.381 10.7639 24.381C9.69973 24.381 8.90954 24.1187 8.39333 23.5942C7.87712 23.0697 7.61902 22.3943 7.61902 21.5678C7.61902 21.3929 7.62696 21.2102 7.64284 21.0194L8.50054 13.6527ZM18.4237 15.9652C18.9319 15.107 19.5593 14.6778 20.3059 14.6778C21.0683 14.6778 21.6321 15.0116 21.9974 15.6792C22.3627 16.3149 22.5454 17.1732 22.5454 18.2539C22.5454 19.3347 22.2873 20.2963 21.7711 21.1386C21.2549 21.981 20.6156 22.4022 19.8532 22.4022C19.0908 22.4022 18.5229 22.1002 18.1497 21.4963C17.7764 20.8923 17.5898 20.1294 17.5898 19.2076C17.6374 17.9043 17.9154 16.8235 18.4237 15.9652Z" fill="white"/>
</svg>
