<svg xmlns="http://www.w3.org/2000/svg" width="13" height="12" fill="none" viewBox="0 0 13 12">
  <path fill="#778CA2" d="M5.975 8.8h1.05V6.525H9.3v-1.05H7.025V3.2h-1.05v2.275H3.7v1.05h2.275V8.8Zm.525 2.8a5.457 5.457 0 0 1-2.173-.438 5.797 5.797 0 0 1-1.794-1.195 5.796 5.796 0 0 1-1.196-1.794A5.458 5.458 0 0 1 .9 6c0-.778.146-1.502.437-2.173a5.619 5.619 0 0 1 2.99-2.99A5.458 5.458 0 0 1 6.5.4a5.39 5.39 0 0 1 2.173.437 5.54 5.54 0 0 1 1.78 1.21 5.501 5.501 0 0 1 1.21 1.78A5.39 5.39 0 0 1 12.1 6c0 .768-.146 1.492-.438 2.173a5.62 5.62 0 0 1-2.99 2.99A5.39 5.39 0 0 1 6.5 11.6Zm0-1.05c1.264 0 2.338-.442 3.223-1.327.885-.885 1.327-1.96 1.327-3.223 0-1.264-.442-2.338-1.327-3.223C8.838 1.892 7.763 1.45 6.5 1.45c-1.264 0-2.338.442-3.223 1.327C2.392 3.662 1.95 4.737 1.95 6c0 1.264.442 2.338 1.327 3.223.885.885 1.96 1.327 3.223 1.327Z"/>
</svg>
