<svg xmlns="http://www.w3.org/2000/svg" width="14" height="14" fill="none" viewBox="0 0 14 14">
  <path fill="#778CA2" d="M2.75 14A2.705 2.705 0 0 1 0 11.25c0-.764.264-1.41.792-1.938A2.67 2.67 0 0 1 2.75 8.5H4v-3H2.75A2.705 2.705 0 0 1 0 2.75C0 1.986.264 1.34.792.812A2.67 2.67 0 0 1 2.75 0a2.6 2.6 0 0 1 1.938.812c.541.528.812 1.174.812 1.938V4h3V2.75c0-.764.264-1.41.792-1.938A2.669 2.669 0 0 1 11.25 0a2.6 2.6 0 0 1 1.938.812c.541.528.812 1.174.812 1.938s-.27 1.417-.813 1.958c-.527.528-1.173.792-1.937.792H10v3h1.25c.764 0 1.41.27 1.938.813A2.6 2.6 0 0 1 14 11.25c0 .764-.27 1.417-.813 1.958-.527.528-1.173.792-1.937.792a2.705 2.705 0 0 1-2.75-2.75V10h-3v1.25c0 .764-.27 1.417-.813 1.958-.527.528-1.173.792-1.937.792Zm0-1.5c.347 0 .639-.118.875-.354.25-.25.375-.549.375-.896V10H2.75c-.347 0-.646.125-.896.375a1.189 1.189 0 0 0-.354.875c0 .347.118.646.354.896.25.236.549.354.896.354Zm8.5 0c.347 0 .639-.118.875-.354.25-.25.375-.549.375-.896s-.125-.639-.375-.875A1.156 1.156 0 0 0 11.25 10H10v1.25c0 .347.118.646.354.896.25.236.549.354.896.354Zm-5.75-4h3v-3h-3v3ZM2.75 4H4V2.75c0-.347-.125-.639-.375-.875A1.156 1.156 0 0 0 2.75 1.5c-.347 0-.646.125-.896.375a1.189 1.189 0 0 0-.354.875c0 .347.118.646.354.896.25.236.549.354.896.354ZM10 4h1.25c.347 0 .639-.118.875-.354.25-.25.375-.549.375-.896s-.125-.639-.375-.875a1.156 1.156 0 0 0-.875-.375c-.347 0-.646.125-.896.375A1.189 1.189 0 0 0 10 2.75V4Z"/>
</svg>
