<svg xmlns="http://www.w3.org/2000/svg" width="16" height="15" fill="none" viewBox="0 0 16 15">
  <path fill="#778CA2" d="M1.5 15c-.417 0-.77-.146-1.063-.438A1.447 1.447 0 0 1 0 13.5v-9c0-.417.146-.77.438-1.063A1.447 1.447 0 0 1 1.5 3H4V1.5c0-.417.146-.77.438-1.063A1.447 1.447 0 0 1 5.5 0h5c.417 0 .77.146 1.063.437.291.292.437.646.437 1.063V3h2.5c.417 0 .77.146 1.063.438.291.291.437.645.437 1.062v9c0 .417-.146.77-.438 1.063A1.446 1.446 0 0 1 14.5 15h-13Zm4-12h5V1.5h-5V3Zm9 7.25h-4V12h-5v-1.75h-4v3.25h13v-3.25ZM7 10.5h2v-2H7v2ZM1.5 8.75h4V7h5v1.75h4V4.5h-13v4.25Z"/>
</svg>
