<svg xmlns="http://www.w3.org/2000/svg" width="16" height="16" fill="none" viewBox="0 0 16 16">
  <path  d="M9 3a.482.482 0 0 1-.354-.146A.482.482 0 0 1 8.5 2.5c0-.139.049-.257.146-.354A.482.482 0 0 1 9 2c.139 0 .257.049.354.146A.482.482 0 0 1 9.5 2.5a.482.482 0 0 1-.146.354A.482.482 0 0 1 9 3Zm2 0a.482.482 0 0 1-.354-.146.482.482 0 0 1-.146-.354c0-.139.049-.257.146-.354A.482.482 0 0 1 11 2c.139 0 .257.049.354.146a.482.482 0 0 1 .146.354.482.482 0 0 1-.146.354A.482.482 0 0 1 11 3ZM7 3a.482.482 0 0 1-.354-.146A.482.482 0 0 1 6.5 2.5c0-.139.049-.257.146-.354A.482.482 0 0 1 7 2c.139 0 .257.049.354.146A.482.482 0 0 1 7.5 2.5a.482.482 0 0 1-.146.354A.482.482 0 0 1 7 3ZM6 4a.482.482 0 0 1-.354-.146A.482.482 0 0 1 5.5 3.5c0-.139.049-.257.146-.354A.482.482 0 0 1 6 3c.139 0 .257.049.354.146A.482.482 0 0 1 6.5 3.5a.482.482 0 0 1-.146.354A.482.482 0 0 1 6 4ZM4 4a.482.482 0 0 1-.354-.146A.482.482 0 0 1 3.5 3.5c0-.139.049-.257.146-.354A.482.482 0 0 1 4 3c.139 0 .257.049.354.146A.482.482 0 0 1 4.5 3.5a.482.482 0 0 1-.146.354A.482.482 0 0 1 4 4Zm4 0a.482.482 0 0 1-.354-.146A.482.482 0 0 1 7.5 3.5c0-.139.049-.257.146-.354A.482.482 0 0 1 8 3c.139 0 .257.049.354.146A.482.482 0 0 1 8.5 3.5a.482.482 0 0 1-.146.354A.482.482 0 0 1 8 4Zm2 0a.482.482 0 0 1-.354-.146A.482.482 0 0 1 9.5 3.5c0-.139.049-.257.146-.354A.482.482 0 0 1 10 3c.139 0 .257.049.354.146a.482.482 0 0 1 .146.354.482.482 0 0 1-.146.354A.482.482 0 0 1 10 4Zm2 0a.482.482 0 0 1-.354-.146.482.482 0 0 1-.146-.354c0-.139.049-.257.146-.354A.482.482 0 0 1 12 3c.139 0 .257.049.354.146a.482.482 0 0 1 .146.354.482.482 0 0 1-.146.354A.482.482 0 0 1 12 4ZM9 5a.482.482 0 0 1-.354-.146A.482.482 0 0 1 8.5 4.5c0-.139.049-.257.146-.354A.482.482 0 0 1 9 4c.139 0 .257.049.354.146A.482.482 0 0 1 9.5 4.5a.482.482 0 0 1-.146.354A.482.482 0 0 1 9 5Zm2 0a.482.482 0 0 1-.354-.146.482.482 0 0 1-.146-.354c0-.139.049-.257.146-.354A.482.482 0 0 1 11 4c.139 0 .257.049.354.146a.482.482 0 0 1 .146.354.482.482 0 0 1-.146.354A.482.482 0 0 1 11 5Zm2 0a.482.482 0 0 1-.354-.146.482.482 0 0 1-.146-.354c0-.139.049-.257.146-.354A.482.482 0 0 1 13 4c.139 0 .257.049.354.146a.482.482 0 0 1 .146.354.482.482 0 0 1-.146.354A.482.482 0 0 1 13 5ZM7 5a.482.482 0 0 1-.354-.146A.482.482 0 0 1 6.5 4.5c0-.139.049-.257.146-.354A.482.482 0 0 1 7 4c.139 0 .257.049.354.146A.482.482 0 0 1 7.5 4.5a.482.482 0 0 1-.146.354A.482.482 0 0 1 7 5ZM5 5a.482.482 0 0 1-.354-.146A.482.482 0 0 1 4.5 4.5c0-.139.049-.257.146-.354A.482.482 0 0 1 5 4c.139 0 .257.049.354.146A.482.482 0 0 1 5.5 4.5a.482.482 0 0 1-.146.354A.482.482 0 0 1 5 5Zm1 1a.482.482 0 0 1-.354-.146A.482.482 0 0 1 5.5 5.5c0-.139.049-.257.146-.354A.482.482 0 0 1 6 5c.139 0 .257.049.354.146A.482.482 0 0 1 6.5 5.5a.482.482 0 0 1-.146.354A.482.482 0 0 1 6 6ZM4 6a.482.482 0 0 1-.354-.146A.482.482 0 0 1 3.5 5.5c0-.139.049-.257.146-.354A.482.482 0 0 1 4 5c.139 0 .257.049.354.146A.482.482 0 0 1 4.5 5.5a.482.482 0 0 1-.146.354A.482.482 0 0 1 4 6Zm4 0a.482.482 0 0 1-.354-.146A.482.482 0 0 1 7.5 5.5c0-.139.049-.257.146-.354A.482.482 0 0 1 8 5c.139 0 .257.049.354.146A.482.482 0 0 1 8.5 5.5a.482.482 0 0 1-.146.354A.482.482 0 0 1 8 6Zm2 0a.482.482 0 0 1-.354-.146A.482.482 0 0 1 9.5 5.5c0-.139.049-.257.146-.354A.482.482 0 0 1 10 5c.139 0 .257.049.354.146a.482.482 0 0 1 .146.354.482.482 0 0 1-.146.354A.482.482 0 0 1 10 6Zm2 0a.482.482 0 0 1-.354-.146.482.482 0 0 1-.146-.354c0-.139.049-.257.146-.354A.482.482 0 0 1 12 5c.139 0 .257.049.354.146a.482.482 0 0 1 .146.354.482.482 0 0 1-.146.354A.482.482 0 0 1 12 6Zm2 0a.482.482 0 0 1-.354-.146.482.482 0 0 1-.146-.354c0-.139.049-.257.146-.354A.482.482 0 0 1 14 5c.139 0 .257.049.354.146a.482.482 0 0 1 .146.354.482.482 0 0 1-.146.354A.482.482 0 0 1 14 6ZM2 6a.482.482 0 0 1-.354-.146A.482.482 0 0 1 1.5 5.5c0-.139.049-.257.146-.354A.482.482 0 0 1 2 5c.139 0 .257.049.354.146A.482.482 0 0 1 2.5 5.5a.482.482 0 0 1-.146.354A.482.482 0 0 1 2 6Zm1-1a.526.526 0 0 1-.354-.125.417.417 0 0 1-.146-.333c0-.153.042-.278.125-.375A.476.476 0 0 1 3 4c.139 0 .257.049.354.146A.482.482 0 0 1 3.5 4.5a.482.482 0 0 1-.146.354A.482.482 0 0 1 3 5Zm2-2a.526.526 0 0 1-.354-.125A.508.508 0 0 1 4.5 2.5c0-.139.049-.257.146-.354A.482.482 0 0 1 5 2c.139 0 .257.049.354.146A.482.482 0 0 1 5.5 2.5a.482.482 0 0 1-.146.354A.482.482 0 0 1 5 3Zm1-1a.482.482 0 0 1-.354-.146A.482.482 0 0 1 5.5 1.5c0-.139.049-.257.146-.354A.482.482 0 0 1 6 1c.139 0 .257.049.354.146A.482.482 0 0 1 6.5 1.5a.482.482 0 0 1-.146.354A.482.482 0 0 1 6 2Zm2 0a.482.482 0 0 1-.354-.146A.482.482 0 0 1 7.5 1.5c0-.139.049-.257.146-.354A.482.482 0 0 1 8 1c.139 0 .257.049.354.146A.482.482 0 0 1 8.5 1.5a.482.482 0 0 1-.146.354A.482.482 0 0 1 8 2Zm1.98 0a.526.526 0 0 1-.355-.125.508.508 0 0 1-.146-.375c0-.139.049-.257.146-.354A.482.482 0 0 1 9.979 1a.48.48 0 0 1 .354.146.482.482 0 0 1 .146.354.507.507 0 0 1-.146.375A.525.525 0 0 1 9.98 2ZM5.5 9.5a.964.964 0 0 1-.708-.292A.964.964 0 0 1 4.5 8.5a.96.96 0 0 1 .292-.708A.964.964 0 0 1 5.5 7.5a.96.96 0 0 1 .708.292.96.96 0 0 1 .292.708.964.964 0 0 1-.292.708.964.964 0 0 1-.708.292Zm5 0a.964.964 0 0 1-.708-.292A.964.964 0 0 1 9.5 8.5a.96.96 0 0 1 .292-.708.964.964 0 0 1 .708-.292.96.96 0 0 1 .708.292.96.96 0 0 1 .292.708.964.964 0 0 1-.292.708.964.964 0 0 1-.708.292ZM8 16a7.796 7.796 0 0 1-3.104-.625 8.28 8.28 0 0 1-2.563-1.708 8.28 8.28 0 0 1-1.708-2.563A7.797 7.797 0 0 1 0 8a7.7 7.7 0 0 1 .625-3.104A8.027 8.027 0 0 1 4.895.625 7.797 7.797 0 0 1 8 0a7.7 7.7 0 0 1 3.104.625c.972.417 1.82.993 2.542 1.73a7.86 7.86 0 0 1 1.729 2.54A7.7 7.7 0 0 1 16 8a7.796 7.796 0 0 1-.625 3.104 8.027 8.027 0 0 1-4.27 4.27A7.7 7.7 0 0 1 8 16.001Zm0-1.5c1.806 0 3.34-.632 4.604-1.896C13.868 11.34 14.5 9.806 14.5 8s-.632-3.34-1.896-4.604C11.34 2.132 9.806 1.5 8 1.5s-3.34.632-4.604 1.896C2.132 4.66 1.5 6.194 1.5 8s.632 3.34 1.896 4.604C4.66 13.868 6.194 14.5 8 14.5Z"/>
</svg>
