<svg xmlns="http://www.w3.org/2000/svg" width="14" height="16" fill="none" viewBox="0 0 14 16">
  <path  d="M1.5 16c-.417 0-.77-.146-1.063-.438A1.492 1.492 0 0 1 0 14.5v-11c0-.403.146-.75.438-1.042A1.414 1.414 0 0 1 1.5 2H3V0h1.5v2h5V0H11v2h1.5c.417 0 .77.153 1.063.458.291.292.437.64.437 1.042v11c0 .403-.146.757-.438 1.063A1.446 1.446 0 0 1 12.5 16h-11Zm0-1.5h11V7h-11v7.5Zm0-9h11v-2h-11v2Zm0 0v-2 2ZM7 10a.779.779 0 0 1-.542-.208.779.779 0 0 1-.208-.542c0-.208.07-.382.208-.52A.74.74 0 0 1 7 8.5c.208 0 .382.076.52.23.154.138.23.312.23.52a.74.74 0 0 1-.23.542A.707.707 0 0 1 7 10Zm-3.25 0a.779.779 0 0 1-.542-.208A.779.779 0 0 1 3 9.25c0-.208.07-.382.208-.52a.74.74 0 0 1 .542-.23c.208 0 .382.076.52.23.154.138.23.312.23.52a.74.74 0 0 1-.23.542.707.707 0 0 1-.52.208Zm6.5 0a.779.779 0 0 1-.542-.208.779.779 0 0 1-.208-.542c0-.208.07-.382.208-.52a.74.74 0 0 1 .542-.23c.208 0 .382.076.52.23.154.138.23.312.23.52a.74.74 0 0 1-.23.542.707.707 0 0 1-.52.208ZM7 13a.779.779 0 0 1-.542-.208.779.779 0 0 1-.208-.542c0-.208.07-.382.208-.52A.74.74 0 0 1 7 11.5c.208 0 .382.076.52.23.154.138.23.312.23.52a.74.74 0 0 1-.23.542A.707.707 0 0 1 7 13Zm-3.25 0a.779.779 0 0 1-.542-.208A.779.779 0 0 1 3 12.25c0-.208.07-.382.208-.52a.74.74 0 0 1 .542-.23c.208 0 .382.076.52.23.154.138.23.312.23.52a.74.74 0 0 1-.23.542.707.707 0 0 1-.52.208Zm6.5 0a.779.779 0 0 1-.542-.208.779.779 0 0 1-.208-.542c0-.208.07-.382.208-.52a.74.74 0 0 1 .542-.23c.208 0 .382.076.52.23.154.138.23.312.23.52a.74.74 0 0 1-.23.542.707.707 0 0 1-.52.208Z"/>
</svg>
