<svg xmlns="http://www.w3.org/2000/svg" width="13" height="10" fill="none" viewBox="0 0 13 10">
  <path d="M4.5 9V7.8h7.6V9H4.5Zm0-3.4V4.4h7.6v1.2H4.5Zm0-3.4V1h7.6v1.2H4.5ZM2.1 9.6c-.333 0-.617-.117-.85-.35A1.157 1.157 0 0 1 .9 8.4c0-.333.117-.617.35-.85.233-.233.517-.35.85-.35.333 0 .617.117.85.35.233.233.35.517.35.85 0 .333-.117.617-.35.85-.233.233-.517.35-.85.35Zm0-3.4c-.333 0-.617-.117-.85-.35A1.157 1.157 0 0 1 .9 5c0-.333.117-.617.35-.85.233-.233.517-.35.85-.35.333 0 .617.117.85.35.233.233.35.517.35.85 0 .333-.117.617-.35.85-.233.233-.517.35-.85.35Zm0-3.4c-.333 0-.617-.117-.85-.35A1.157 1.157 0 0 1 .9 1.6c0-.333.117-.617.35-.85.233-.233.517-.35.85-.35.333 0 .617.117.85.35.233.233.35.517.35.85 0 .333-.117.617-.35.85-.233.233-.517.35-.85.35Z"/>
</svg>
