<svg xmlns="http://www.w3.org/2000/svg" width="10" height="4" fill="none" viewBox="0 0 10 4">
  <path  d="M1.85 3.05c-.292 0-.54-.102-.744-.306A1.013 1.013 0 0 1 .8 2c0-.292.102-.54.306-.744.204-.204.452-.306.744-.306s.54.102.744.306c.204.204.306.452.306.744s-.102.54-.306.744a1.013 1.013 0 0 1-.744.306Zm3.15 0c-.292 0-.54-.102-.744-.306A1.013 1.013 0 0 1 3.95 2c0-.292.102-.54.306-.744C4.46 1.052 4.708.95 5 .95s.54.102.744.306c.204.204.306.452.306.744s-.102.54-.306.744A1.013 1.013 0 0 1 5 3.05Zm3.15 0c-.292 0-.54-.102-.744-.306A1.013 1.013 0 0 1 7.1 2c0-.292.102-.54.306-.744.204-.204.452-.306.744-.306s.54.102.744.306c.204.204.306.452.306.744s-.102.54-.306.744a1.013 1.013 0 0 1-.744.306Z"/>
</svg>
