<svg xmlns="http://www.w3.org/2000/svg" width="12" height="16" fill="none" viewBox="0 0 12 16">
  <path d="M0 13.5V12h1V7c0-1.208.368-2.27 1.104-3.188C2.854 2.897 3.82 2.327 5 2.104V1a.96.96 0 0 1 .292-.708A.964.964 0 0 1 6 0a.96.96 0 0 1 .708.292A.96.96 0 0 1 7 1v1.104c1.18.222 2.139.792 2.875 1.708C10.625 4.73 11 5.793 11 7v5h1v1.5H0ZM6 16c-.417 0-.77-.146-1.063-.438A1.447 1.447 0 0 1 4.5 14.5h3c0 .417-.146.77-.438 1.063A1.446 1.446 0 0 1 6 16Zm-3.5-4h7V7c0-.972-.34-1.799-1.02-2.48C7.798 3.84 6.971 3.5 6 3.5s-1.799.34-2.48 1.02C2.84 5.202 2.5 6.029 2.5 7v5Z"/>
</svg>
