<svg xmlns="http://www.w3.org/2000/svg" width="14" height="14" fill="none" viewBox="0 0 14 14">
  <path d="m12.938 14-4.98-4.98a5.43 5.43 0 0 1-1.375.73A4.96 4.96 0 0 1 5 10c-1.389 0-2.57-.486-3.542-1.458C.486 7.569 0 6.389 0 5c0-1.389.486-2.57 1.458-3.542C2.431.486 3.611 0 5 0c1.389 0 2.57.486 3.542 1.458C9.514 2.431 10 3.611 10 5c0 .556-.09 1.083-.27 1.583-.168.5-.404.959-.71 1.375l4.98 4.98L12.937 14ZM5 8.5c.972 0 1.799-.34 2.48-1.02C8.16 6.798 8.5 5.971 8.5 5s-.34-1.799-1.02-2.48C6.798 1.84 5.971 1.5 5 1.5s-1.799.34-2.48 1.02C1.84 3.202 1.5 4.029 1.5 5s.34 1.799 1.02 2.48C3.202 8.16 4.029 8.5 5 8.5Z"/>
</svg>
