<svg xmlns="http://www.w3.org/2000/svg" width="16" height="16" fill="none" viewBox="0 0 16 16">
  <path  d="m6.396 16-.458-2.375A8.18 8.18 0 0 1 5 13.187a5.629 5.629 0 0 1-.833-.583l-2.292.771-1.604-2.77L2.083 9.02a6.147 6.147 0 0 1-.062-1.542c.014-.167.035-.333.062-.5L.271 5.396l1.604-2.771 2.292.77c.264-.221.541-.416.833-.583.306-.166.618-.312.938-.437L6.396 0h3.208l.459 2.375c.319.125.624.27.916.438.306.166.59.36.854.583l2.292-.771 1.604 2.77-1.812 1.584a6.183 6.183 0 0 1 0 2.042l1.812 1.583-1.604 2.771-2.292-.77a5.159 5.159 0 0 1-.854.582 6.948 6.948 0 0 1-.916.438L9.604 16H6.396Zm1.229-1.5h.75l.396-2.063a4.618 4.618 0 0 0 1.479-.541 4.337 4.337 0 0 0 1.188-1l2 .666.374-.624-1.583-1.396c.084-.236.146-.48.188-.73a3.937 3.937 0 0 0 0-1.604 4.238 4.238 0 0 0-.188-.75l1.584-1.396-.376-.625-2 .667a4.337 4.337 0 0 0-1.187-1 4.619 4.619 0 0 0-1.48-.542L8.376 1.5h-.75L7.23 3.563a4.619 4.619 0 0 0-1.479.541 4.337 4.337 0 0 0-1.188 1l-2-.667-.374.625L3.77 6.458a5.911 5.911 0 0 0-.208.75 5.202 5.202 0 0 0 0 1.604c.055.25.124.494.208.73l-1.583 1.396.374.624 2-.666c.334.403.73.736 1.188 1 .458.264.951.444 1.48.541l.395 2.063ZM8 11c.833 0 1.542-.292 2.125-.875A2.893 2.893 0 0 0 11 8c0-.833-.292-1.542-.875-2.125A2.893 2.893 0 0 0 8 5c-.833 0-1.542.292-2.125.875A2.893 2.893 0 0 0 5 8c0 .833.292 1.542.875 2.125A2.893 2.893 0 0 0 8 11Z"/>
</svg>
