<svg xmlns="http://www.w3.org/2000/svg" width="16" height="12" fill="none" viewBox="0 0 16 12">
  <path d="M0 12v-1.917c0-.36.083-.687.25-.979a2.04 2.04 0 0 1 .73-.729 9.973 9.973 0 0 1 2.374-1.02A9.81 9.81 0 0 1 6 7c.917 0 1.792.118 2.625.354a9.882 9.882 0 0 1 2.396 1.021c.305.18.541.424.708.73.18.29.271.617.271.978V12H0Zm13.5 0v-1.917a3.29 3.29 0 0 0-.417-1.625c-.264-.5-.625-.91-1.083-1.229a9.655 9.655 0 0 1 1.563.458c.513.181 1 .41 1.458.688.305.18.541.424.708.73.18.29.271.617.271.978V12h-2.5ZM6 6a2.893 2.893 0 0 1-2.125-.875A2.893 2.893 0 0 1 3 3c0-.833.292-1.542.875-2.125A2.893 2.893 0 0 1 6 0c.833 0 1.542.292 2.125.875S9 2.167 9 3s-.292 1.542-.875 2.125A2.893 2.893 0 0 1 6 6Zm7-3c0 .833-.292 1.542-.875 2.125A2.893 2.893 0 0 1 10 6h-.313a3.104 3.104 0 0 1-.312-.063c.347-.402.618-.847.813-1.333A4.13 4.13 0 0 0 10.5 3c0-.57-.104-1.097-.313-1.583A4.626 4.626 0 0 0 9.376.062c.111-.027.215-.041.313-.041a2.893 2.893 0 0 1 2.438.854c.582.583.874 1.292.874 2.125ZM1.5 10.5h9v-.417c0-.083-.02-.16-.063-.229a.441.441 0 0 0-.166-.187 8.625 8.625 0 0 0-2.063-.854A7.929 7.929 0 0 0 6 8.5a8.43 8.43 0 0 0-2.208.292 8.155 8.155 0 0 0-2.063.875.479.479 0 0 0-.167.166.477.477 0 0 0-.062.25v.417Zm4.5-6c.417 0 .77-.146 1.063-.438.291-.291.437-.645.437-1.062 0-.417-.146-.77-.438-1.063A1.447 1.447 0 0 0 6 1.5c-.417 0-.77.146-1.063.438A1.447 1.447 0 0 0 4.5 3c0 .417.146.77.438 1.063.291.291.645.437 1.062.437Z"/>
</svg>
